<svg width="250" height="223" viewBox="0 0 250 223" fill="none" xmlns="http://www.w3.org/2000/svg">
<g clip-path="url(#clip0_2_14)">
<path d="M177.015 127.917C175.556 127.778 174.098 127.57 172.709 127.362C174.168 127.57 175.626 127.709 177.015 127.917Z" fill="white"/>
<path d="M125 98.6116C113.681 76.5977 82.8472 35.5561 54.1667 15.3477C26.7361 -4.0967 16.25 -0.693922 9.375 2.36163C1.45833 5.97274 0 18.195 0 25.3477C0 32.5005 3.95833 84.2366 6.52778 92.8477C15 121.32 45.2083 130.973 72.9861 127.917C74.375 127.709 75.8333 127.501 77.2917 127.362C75.8333 127.57 74.4445 127.778 72.9861 127.917C32.2222 133.959 -3.95834 148.82 43.5417 201.667C95.7639 255.764 115.069 190.07 125 156.806C134.931 190.07 146.389 253.403 205.556 201.667C250 156.806 217.778 133.959 177.014 127.917C175.556 127.778 174.097 127.57 172.708 127.362C174.167 127.57 175.625 127.709 177.014 127.917C204.792 131.042 235 121.389 243.472 92.8477C246.042 84.2366 250 32.57 250 25.3477C250 18.1255 248.542 5.97274 240.625 2.36163C233.75 -0.763366 223.264 -4.0967 195.833 15.2783C167.153 35.4866 136.319 76.5283 125 98.5422V98.6116Z" fill="white"/>
</g>
<defs>
<clipPath id="clip0_2_14">
<rect width="250" height="222.222" fill="white"/>
</clipPath>
</defs>
</svg>
